HIERARCHY
ROOT Hips
{
	OFFSET 0.000000 0.000000 0.000000
	CHANNELS 6 Xposition Yposition Zposition Xrotation Yrotation Zrotation
	JOINT Spine
	{
		OFFSET 0.000000 1.832407 0.000002
		CHANNELS 3 Xrotation Yrotation Zrotation
		JOINT Spine1
		{
			OFFSET 0.000000 5.000480 0.000007
			CHANNELS 3 Xrotation Yrotation Zrotation
			JOINT Neck
			{
				OFFSET 0.000000 5.447409 0.000008
				CHANNELS 3 Xrotation Yrotation Zrotation
				JOINT Head
				{
					OFFSET 0.000000 3.463698 0.446933
					CHANNELS 3 Xrotation Yrotation Zrotation
					End Site
					{
						OFFSET 0.000000 4.469283 0.000006
					}
				}
			}
			JOINT LeftShoulder
			{
				OFFSET 0.899998 4.398502 -0.118132
				CHANNELS 3 Xrotation Yrotation Zrotation
				JOINT LeftArm
				{
					OFFSET 3.211441 0.000000 0.000000
					CHANNELS 3 Xrotation Yrotation Zrotation
					JOINT LeftForeArm
					{
						OFFSET 6.297127 0.000000 0.000000
						CHANNELS 3 Xrotation Yrotation Zrotation
						JOINT LeftHand
						{
							OFFSET 5.852364 0.000000 0.000000
							CHANNELS 3 Xrotation Yrotation Zrotation
							End Site
							{
								OFFSET 3.351967 0.000000 0.000000
							}
						}
					}
				}
			}
			JOINT RightShoulder
			{
				OFFSET -0.887581 4.398502 -0.118132
				CHANNELS 3 Xrotation Yrotation Zrotation
				JOINT RightArm
				{
					OFFSET -3.211441 0.000000 0.000000
					CHANNELS 3 Xrotation Yrotation Zrotation
					JOINT RightForeArm
					{
						OFFSET -6.297128 0.000000 0.000000
						CHANNELS 3 Xrotation Yrotation Zrotation
						JOINT RightHand
						{
							OFFSET -5.852364 0.000000 0.000000
							CHANNELS 3 Xrotation Yrotation Zrotation
							End Site
							{
								OFFSET -3.351965 0.000000 0.000000
							}
						}
					}
				}
			}
		}
	}
	JOINT LeftUpLeg
	{
		OFFSET 2.234643 0.000000 0.000000
		CHANNELS 3 Xrotation Yrotation Zrotation
		JOINT LeftLeg
		{
			OFFSET 0.000000 -9.398131 -0.000012
			CHANNELS 3 Xrotation Yrotation Zrotation
			JOINT LeftFoot
			{
				OFFSET 0.000000 -9.852888 -0.000013
				CHANNELS 3 Xrotation Yrotation Zrotation
				JOINT LeftToeBase
				{
					OFFSET 0.000000 -1.452518 3.351964
					CHANNELS 3 Xrotation Yrotation Zrotation
					End Site
					{
						OFFSET 0.000000 0.000000 0.893858
					}
				}
			}
		}
	}
	JOINT RightUpLeg
	{
		OFFSET -2.234643 0.000000 0.000000
		CHANNELS 3 Xrotation Yrotation Zrotation
		JOINT RightLeg
		{
			OFFSET 0.000000 -9.398131 -0.000012
			CHANNELS 3 Xrotation Yrotation Zrotation
			JOINT RightFoot
			{
				OFFSET 0.000000 -9.852888 -0.000013
				CHANNELS 3 Xrotation Yrotation Zrotation
				JOINT RightToeBase
				{
					OFFSET 0.000000 -1.452518 3.351964
					CHANNELS 3 Xrotation Yrotation Zrotation
					End Site
					{
						OFFSET 0.000000 0.000000 0.893858
					}
				}
			}
		}
	}
}
MOTION
Frames: 15
Frame Time: 0.041667
1.558263 19.686163 -0.181392 3.667499 1.171267 0.732056 -18.310487 -1.754156 -1.985713 18.376796 0.085156 4.883029 9.379829 5.201904 5.747104 6.269854 6.066108 -5.729476 -8.784556 -0.029196 20.886567 -2.352079 -10.638538 -14.612923 -8.611207 -9.374214 5.044844 -9.070961 -0.708931 -7.301767 -5.378012 -9.337642 -17.989648 29.043590 22.135895 -1.942751 70.941138 48.462777 -109.713902 5.927155 0.555132 -34.471924 -6.984588 -1.826817 -2.489454 13.528656 1.840508 0.938574 -6.636342 21.466164 2.992638 0.000005 0.000002 -0.000000 -5.845126 0.771925 1.222946 12.802925 -0.740584 1.886549 -12.606810 -21.135175 -1.176072 -0.000003 0.000007 0.000002 
1.564981 19.687334 -0.185092 3.741011 1.175500 0.755142 -18.281094 -1.752054 -1.986262 18.292112 0.079323 4.863897 9.340961 5.218665 5.735094 6.258662 6.085428 -5.730358 -8.769744 0.000604 20.866668 -2.480533 -10.641932 -14.642136 -8.559808 -9.370065 5.024059 -9.017724 -0.709307 -7.309400 -5.363530 -9.305302 -18.010107 29.087365 22.086207 -1.890453 70.966150 48.431369 -109.839824 5.855893 0.513723 -34.468871 -7.570239 -1.810120 -2.529212 14.519918 1.550958 0.864611 -6.989721 21.758339 3.105637 0.000003 0.000001 -0.000003 -5.937390 0.788808 1.131067 12.827203 -0.718356 1.979195 -12.621162 -21.147898 -1.200166 0.000006 0.000007 -0.000004 
1.572716 19.688868 -0.189800 3.815362 1.195829 0.777915 -18.228995 -1.760376 -1.988194 18.185473 0.069207 4.845475 9.280369 5.230153 5.705769 6.272600 6.096690 -5.708770 -8.754147 0.019566 20.853609 -2.499189 -10.637785 -14.669259 -8.573131 -9.395210 5.021217 -9.031499 -0.703988 -7.294637 -5.372841 -9.307854 -18.022979 29.124125 22.067819 -1.877400 70.982031 48.387516 -109.927831 5.833145 0.491620 -34.430331 -8.216118 -1.758702 -2.574573 15.634146 1.316649 0.805096 -7.492124 21.878568 3.424274 0.000002 -0.000002 0.000002 -6.033522 0.807380 1.034390 12.845859 -0.739938 2.080572 -12.616299 -21.153096 -1.198020 0.000002 0.000011 -0.000002 
1.582002 19.690495 -0.194943 3.886065 1.246064 0.800006 -18.170142 -1.790151 -1.968896 18.078899 0.046871 4.786708 9.227189 5.240000 5.690247 6.250969 6.109013 -5.696968 -8.720298 0.051000 20.858841 -2.547986 -10.651252 -14.702148 -8.585846 -9.399410 5.022130 -9.041670 -0.658945 -7.311215 -5.348390 -9.321396 -18.017508 28.996014 22.053793 -1.830144 71.310235 48.998244 -110.247292 6.151527 4.004870 -33.211361 -8.924895 -1.808674 -2.628462 16.881776 0.943914 0.718518 -8.176102 22.255408 3.621480 0.000004 0.000003 -0.000003 -6.127962 0.825795 0.929496 12.870273 -1.147928 2.187887 -12.570593 -20.805009 -1.134386 0.000000 -0.000000 -0.000002 
1.591821 19.692162 -0.199982 3.960014 1.307279 0.808644 -18.120065 -1.809634 -1.944962 17.989873 0.031159 4.742340 9.158790 5.224903 5.684363 6.232188 6.097557 -5.696137 -8.675669 0.043394 20.846157 -2.594734 -10.646817 -14.720431 -8.576272 -9.401661 5.046808 -9.036677 -0.693607 -7.347370 -5.382187 -9.302415 -18.020612 28.958045 21.991385 -1.791290 71.253210 48.360526 -110.117314 5.894813 0.300760 -34.516132 -9.652147 -1.778148 -2.697076 18.220853 0.674866 0.670265 -8.959285 22.408271 3.884798 0.000000 -0.000002 -0.000001 -6.228943 0.845005 0.835312 12.908476 -1.176909 2.296844 -12.567489 -20.838065 -1.113711 -0.000000 0.000003 0.000002 
1.604206 19.694334 -0.205959 4.030495 1.395996 0.803799 -18.048413 -1.842730 -1.899481 17.883158 0.010553 4.691832 9.082114 5.207224 5.674106 6.211364 6.083101 -5.687154 -8.633999 0.057464 20.839235 -2.737210 -10.675120 -14.759363 -8.576843 -9.367378 5.042115 -9.033827 -0.668770 -7.363711 -5.340875 -9.328422 -18.034824 28.955259 21.916745 -1.752299 71.199135 48.240229 -110.200628 5.897305 0.270920 -34.527873 -10.392298 -2.008088 -2.743137 19.442909 0.598356 0.495080 -9.604390 22.522479 4.172440 0.000000 0.000005 -0.000002 -6.317913 0.861989 0.752375 12.932807 -1.052435 2.394948 -12.563833 -21.036479 -1.149374 -0.000001 0.000005 -0.000001 
1.617071 19.696447 -0.210036 4.106380 1.505481 0.796669 -18.015944 -1.890430 -1.874500 17.819801 -0.008417 4.679802 9.007609 5.190539 5.641823 6.158736 6.070632 -5.686530 -8.589781 0.057478 20.816588 -2.802324 -10.686232 -14.801589 -8.594463 -9.363389 5.070686 -9.056285 -0.706992 -7.394156 -5.339382 -9.341131 -18.058487 28.909353 21.823704 -1.722886 71.535549 48.898065 -110.624128 6.123580 3.980525 -33.227590 -11.082542 -2.232697 -2.776281 20.531561 0.397305 0.260259 -10.207882 22.678310 4.780011 -0.000006 0.000005 0.000000 -6.403238 0.877507 0.688696 12.941545 -1.408166 2.459840 -12.504985 -20.814049 -1.065922 0.000001 0.000006 0.000001 
1.665896 19.733227 -0.141475 3.016951 2.674525 -0.063161 -17.314359 -3.042531 -0.554895 18.280810 -0.423136 3.936570 8.902320 5.162890 5.648716 6.115016 6.048330 -5.663787 -8.580392 0.012487 20.818905 -2.752715 -10.672834 -14.807215 -8.642359 -9.382403 5.087047 -9.104229 -0.672488 -7.412103 -5.361405 -9.335461 -18.027104 28.805612 21.700440 -1.688675 71.693948 48.896727 -110.741436 6.167303 3.975598 -33.232207 -10.374194 -3.822005 -2.361016 21.359303 0.697562 0.181002 -10.695633 22.593403 5.157415 -0.000005 0.000007 0.000000 -4.604803 0.582121 1.202281 12.125856 -1.904567 2.918505 -11.526018 -21.320714 -0.718560 0.000007 0.000006 -0.000000 
1.680011 19.732187 -0.148690 3.117189 2.716431 -0.010240 -17.264471 -2.995619 -0.584826 18.187211 -0.414026 3.924260 8.821439 5.117927 5.663416 6.034060 6.012595 -5.686443 -8.564156 -0.027717 20.828298 -2.764419 -10.685961 -14.858933 -8.675446 -9.373517 5.125838 -9.139240 -0.658413 -7.421082 -5.269856 -9.400577 -18.035026 28.711393 21.612330 -1.635553 71.692848 48.843011 -110.871326 6.089687 3.932217 -33.199098 -11.037894 -4.269292 -2.353918 22.322122 0.576395 -0.437542 -11.315635 23.068158 5.400271 0.000003 -0.000003 0.000003 -4.786851 0.610554 1.095671 12.256859 -1.913213 2.942544 -11.596589 -21.368621 -0.715628 0.000005 0.000007 0.000002 
1.695277 19.732819 -0.151874 3.173201 2.758275 0.034189 -17.202040 -2.958284 -0.612314 18.118859 -0.406365 3.915596 8.759660 5.078442 5.687696 5.947920 5.982814 -5.714876 -8.523505 -0.054263 20.852749 -2.912896 -10.665973 -14.936369 -8.656686 -9.365501 5.105893 -9.120506 -0.695279 -7.362461 -5.248906 -9.391265 -18.025832 28.483975 21.486539 -1.529703 71.919870 48.866947 -110.985083 6.177455 3.936985 -33.209083 -11.541588 -4.463790 -2.442838 22.999738 0.504410 -0.773418 -11.798044 23.267914 5.147889 -0.000002 -0.000002 0.000000 -4.903523 0.630496 0.987599 12.368801 -1.532983 2.988436 -11.688634 -21.795685 -0.779783 -0.000003 0.000003 0.000001 
1.711522 19.731403 -0.156672 3.265489 2.740106 0.108175 -17.175783 -2.873269 -0.672703 18.063854 -0.381252 3.924958 8.678983 5.052977 5.705606 5.862508 5.967684 -5.737673 -8.503465 -0.085189 20.834392 -2.907777 -10.657421 -14.933766 -8.693747 -9.379428 5.097216 -9.156941 -0.688416 -7.347512 -5.227001 -9.423780 -18.019922 28.275769 21.433494 -1.469096 72.072784 48.900388 -111.058801 6.225076 3.959479 -33.240953 -11.972624 -4.585700 -2.551453 23.491580 0.396165 -1.093753 -12.308541 23.005651 4.937402 0.000012 0.000005 -0.000001 -5.076124 0.660466 0.855879 12.493882 -1.575535 3.014656 -11.759836 -21.775258 -0.763201 0.000000 0.000003 -0.000001 
1.729523 19.730484 -0.156525 3.311193 2.691614 0.214856 -17.136253 -2.748727 -0.768077 18.036160 -0.340196 3.955602 8.627327 5.021199 5.718860 5.740014 5.945811 -5.754755 -8.489755 -0.119307 20.831476 -2.996139 -10.660731 -14.992055 -8.652183 -9.353342 5.110019 -9.114388 -0.675216 -7.341348 -5.214286 -9.421713 -18.015654 27.989470 21.330285 -1.378613 72.341013 48.977886 -111.142163 6.315820 3.967742 -33.166924 -12.317117 -4.588060 -2.688525 23.722202 0.369050 -1.364775 -12.535489 22.260259 4.857596 0.000001 0.000011 -0.000001 -5.196997 0.684135 0.686885 12.635631 -1.474366 3.040527 -11.866223 -21.835410 -0.795739 -0.000002 0.000007 0.000000 
1.749978 19.729471 -0.155016 3.338399 2.584769 0.320608 -17.092828 -2.599120 -0.834685 18.030637 -0.292963 3.959003 8.576817 4.996864 5.754929 5.626500 5.934710 -5.801214 -8.484039 -0.116586 20.837273 -3.060003 -10.677203 -15.040705 -8.638966 -9.351316 5.106495 -9.102733 -0.701641 -7.383148 -5.204242 -9.434160 -18.017407 27.803047 21.290559 -1.303759 72.461723 49.014619 -111.189585 6.336133 3.936402 -33.184884 -12.546300 -4.524407 -2.821608 23.755929 0.025640 -1.600829 -12.758722 21.701079 4.497402 -0.000002 0.000008 -0.000003 -5.306187 0.706076 0.542092 12.779000 -1.433681 3.017330 -11.954888 -21.812423 -0.791644 0.000002 0.000001 -0.000001 
1.769543 19.729237 -0.149117 3.355349 2.508327 0.380682 -17.072464 -2.483076 -0.852133 18.039021 -0.258829 3.932172 8.552936 4.981970 5.802761 5.515447 5.930421 -5.820326 -8.454186 -0.143589 20.835562 -3.005211 -10.678167 -15.045146 -8.650330 -9.378744 5.120463 -9.118075 -0.727463 -7.376242 -5.166729 -9.423057 -17.971001 27.652087 21.235024 -1.259400 72.546164 49.054637 -111.222794 6.359948 4.007015 -33.189627 -12.697060 -4.458134 -2.953543 23.640584 -0.564527 -1.722774 -12.857650 21.336515 4.035961 -0.000001 0.000002 0.000001 -5.408461 0.724005 0.485229 12.954934 -1.406857 2.923861 -12.011936 -21.832935 -0.746309 -0.000011 -0.000001 0.000000 
1.789907 19.729912 -0.142026 3.364852 2.389113 0.474150 -17.037769 -2.331035 -0.952660 18.027364 -0.202709 3.998538 8.545108 4.966945 5.821047 5.426091 5.924732 -5.867635 -8.445704 -0.153638 20.823848 -2.877759 -10.708638 -15.081628 -8.746675 -9.418177 5.135610 -9.217412 -0.730152 -7.340998 -5.133569 -9.462325 -17.989328 27.553504 21.284741 -1.255341 72.554477 49.109958 -111.203191 6.303966 3.957376 -33.157471 -12.763636 -4.275999 -3.164936 23.356271 -1.353818 -1.686765 -12.643826 21.378147 3.276983 0.000000 -0.000002 -0.000000 -5.505088 0.742119 0.381984 13.138764 -1.258135 2.846775 -12.083299 -21.913870 -0.702855 0.000004 0.000003 -0.000001 
